<svg width="16" height="16" viewBox="0 0 16 16" fill="none" xmlns="http://www.w3.org/2000/svg">
<g clip-path="url(#clip0_37_6906)">
<path d="M4.11111 13.5556C3.80556 13.5556 3.54398 13.4468 3.32639 13.2292C3.1088 13.0116 3 12.75 3 12.4445V4.66668C3 4.36112 3.1088 4.09955 3.32639 3.88196C3.54398 3.66437 3.80556 3.55557 4.11111 3.55557H4.66667V2.44446H5.77778V3.55557H10.2222V2.44446H11.3333V3.55557H11.8889C12.1944 3.55557 12.456 3.66437 12.6736 3.88196C12.8912 4.09955 13 4.36112 13 4.66668V12.4445C13 12.75 12.8912 13.0116 12.6736 13.2292C12.456 13.4468 12.1944 13.5556 11.8889 13.5556H4.11111ZM4.11111 12.4445H11.8889V6.8889H4.11111V12.4445ZM4.11111 5.77779H11.8889V4.66668H4.11111V5.77779Z" fill="currentColor"/>
</g>
<defs>
<clipPath id="clip0_37_6906">
<rect width="10" height="11.1111" fill="currentColor" transform="translate(3 2.44446)"/>
</clipPath>
</defs>
</svg>
