<svg width="16" height="16" viewBox="0 0 16 16" fill="none" xmlns="http://www.w3.org/2000/svg">
  <path
    d="M9.71431 0.571411H6.28574C5.65456 0.571411 5.14288 1.08309 5.14288 1.71427V2.2857C5.14288 2.91687 5.65456 3.42855 6.28574 3.42855H9.71431C10.3455 3.42855 10.8572 2.91687 10.8572 2.2857V1.71427C10.8572 1.08309 10.3455 0.571411 9.71431 0.571411Z"
    stroke="currentColor" stroke-width="1.14286" stroke-linecap="round" stroke-linejoin="round" />
  <path
    d="M11.1429 1.71423H12.8571C13.1602 1.71423 13.451 1.83464 13.6653 2.04896C13.8795 2.2633 14 2.55398 14 2.85709V14.2857C14 14.5887 13.8795 14.8795 13.6653 15.0938C13.451 15.3081 13.1602 15.4285 12.8571 15.4285H3.14286C2.83975 15.4285 2.54906 15.3081 2.33473 15.0938C2.12041 14.8795 2 14.5887 2 14.2857V2.85709C2 2.55398 2.12041 2.2633 2.33473 2.04896C2.54906 1.83464 2.83975 1.71423 3.14286 1.71423H4.85714"
    stroke="currentColor" stroke-width="1.14286" stroke-linecap="round" stroke-linejoin="round" />
</svg>