<svg width="16" height="16" viewBox="0 0 16 16" fill="none" xmlns="http://www.w3.org/2000/svg">
<path d="M15.12 7.13854C15.3095 7.37479 15.4144 7.68173 15.4144 7.99998C15.4144 8.31823 15.3095 8.62517 15.12 8.86142C13.92 10.3143 11.1885 13.1429 7.99996 13.1429C4.81139 13.1429 2.07996 10.3143 0.879955 8.86142C0.690423 8.62517 0.58551 8.31823 0.58551 7.99998C0.58551 7.68173 0.690423 7.37479 0.879955 7.13854C2.07996 5.68566 4.81139 2.85706 7.99996 2.85706C11.1885 2.85706 13.92 5.68566 15.12 7.13854Z" stroke="currentColor" stroke-width="1.14286" stroke-linecap="round" stroke-linejoin="round"/>
<path d="M7.99998 10.2857C9.26234 10.2857 10.2857 9.26231 10.2857 7.99995C10.2857 6.73758 9.26234 5.71423 7.99998 5.71423C6.73761 5.71423 5.71426 6.73758 5.71426 7.99995C5.71426 9.26231 6.73761 10.2857 7.99998 10.2857Z" stroke="currentColor" stroke-width="1.14286" stroke-linecap="round" stroke-linejoin="round"/>
</svg>
