<svg width="16" height="16" viewBox="0 0 16 16" fill="none" xmlns="http://www.w3.org/2000/svg">
  <g clip-path="url(#clip0_73_531)">
    <path
      d="M8.00001 15.4284C6.32599 13.5854 4.05577 12.3916 1.58858 12.057C1.30775 12.0259 1.0484 11.8919 0.860558 11.6809C0.67272 11.4698 0.569719 11.1967 0.571432 10.9141V1.71413C0.571422 1.54906 0.607172 1.38594 0.676223 1.23599C0.745273 1.08606 0.845986 0.952858 0.971432 0.845559C1.09467 0.740211 1.23891 0.66229 1.39458 0.61697C1.55023 0.57165 1.71377 0.559969 1.87429 0.582701C4.23348 0.974252 6.39169 2.14999 8.00001 3.91985V15.4284Z"
      stroke="currentColor" stroke-width="1.14286" stroke-linecap="round" stroke-linejoin="round" />
    <path
      d="M8 15.4283C9.67401 13.5852 11.9442 12.3915 14.4114 12.0569C14.6922 12.0258 14.9517 11.8917 15.1394 11.6808C15.3273 11.4697 15.4303 11.1965 15.4286 10.914V1.71401C15.4286 1.54893 15.3928 1.38581 15.3238 1.23587C15.2547 1.08594 15.1541 0.952736 15.0286 0.845437C14.9054 0.740089 14.7611 0.662168 14.6055 0.616848C14.4497 0.571528 14.2863 0.559847 14.1257 0.582579C11.7665 0.97413 9.60832 2.14987 8 3.91972V15.4283Z"
      stroke="currentColor" stroke-width="1.14286" stroke-linecap="round" stroke-linejoin="round" />
  </g>
  <defs>
    <clipPath id="clip0_73_531">
      <rect width="16" height="16" fill="currentColor" />
    </clipPath>
  </defs>
</svg>