<svg width="16" height="16" viewBox="0 0 16 16" fill="none" xmlns="http://www.w3.org/2000/svg">
<g clip-path="url(#clip0_37_7624)">
<mask id="mask0_37_7624" style="mask-type:luminance" maskUnits="userSpaceOnUse" x="0" y="0" width="16" height="16">
<path d="M16 0H0V16H16V0Z" fill="currentColor"/>
</mask>
<g mask="url(#mask0_37_7624)">
<path d="M8 0C6.41775 0 4.87103 0.469192 3.55544 1.34824C2.23985 2.22729 1.21447 3.47672 0.608967 4.93853C0.00346641 6.40034 -0.154961 8.00887 0.153721 9.56073C0.462403 11.1126 1.22433 12.538 2.34315 13.6569C3.46197 14.7757 4.88743 15.5376 6.43928 15.8463C7.99113 16.1549 9.59967 15.9965 11.0615 15.391C12.5233 14.7855 13.7727 13.7601 14.6517 12.4445C15.5308 11.1289 16 9.58227 16 8C15.9977 5.87895 15.1542 3.84543 13.6544 2.34562C12.1546 0.845813 10.1211 0.00223986 8 0ZM11.5123 6.58923L7.2046 10.8969C7.14747 10.9541 7.0796 10.9995 7.00487 11.0305C6.9302 11.0615 6.85013 11.0774 6.7692 11.0774C6.68833 11.0774 6.60829 11.0615 6.53358 11.0305C6.45887 10.9995 6.391 10.9541 6.33385 10.8969L4.48769 9.0508C4.37223 8.93527 4.30735 8.77867 4.30735 8.6154C4.30735 8.45207 4.37223 8.29547 4.48769 8.18C4.60317 8.06453 4.75978 7.99967 4.92308 7.99967C5.08638 7.99967 5.24299 8.06453 5.35847 8.18L6.7692 9.59153L10.6415 5.71846C10.6987 5.66129 10.7666 5.61593 10.8413 5.58499C10.916 5.55405 10.9961 5.53812 11.0769 5.53812C11.1578 5.53812 11.2379 5.55405 11.3125 5.58499C11.3873 5.61593 11.4551 5.66129 11.5123 5.71846C11.5695 5.77563 11.6149 5.84351 11.6458 5.91821C11.6767 5.99292 11.6927 6.07299 11.6927 6.15385C11.6927 6.23471 11.6767 6.31477 11.6458 6.38947C11.6149 6.46418 11.5695 6.53205 11.5123 6.58923Z" fill="currentColor"/>
</g>
</g>
<defs>
<clipPath id="clip0_37_7624">
<rect width="16" height="16" fill="currentColor"/>
</clipPath>
</defs>
</svg>
