<svg width="20" height="20" viewBox="0 0 20 20" fill="none" xmlns="http://www.w3.org/2000/svg">
  <g clip-path="url(#clip0_108_2253)">
    <path
      d="M20 10.0608C20 4.50417 15.5225 0 10 0C4.4775 0 0 4.50417 0 10.0608C0 15.0833 3.65667 19.245 8.4375 20V12.9692H5.89833V10.0608H8.4375V7.84167C8.4375 5.32083 9.93083 3.9275 12.215 3.9275C13.3083 3.9275 14.4533 4.12417 14.4533 4.12417V6.59917H13.1925C11.95 6.59917 11.5625 7.37417 11.5625 8.17V10.0617H14.3358L13.8925 12.97H11.5625V20C16.3433 19.245 20 15.0833 20 10.0608Z"
      fill="currentColor" />
  </g>
  <defs>
    <clipPath id="clip0_108_2253">
      <rect width="20" height="20" fill="white" />
    </clipPath>
  </defs>
</svg>