<svg width="16" height="16" viewBox="0 0 16 16" fill="none" xmlns="http://www.w3.org/2000/svg">
<g clip-path="url(#clip0_37_7532)">
<rect width="16" height="16" fill="#4CA3FF"/>
<path fill-rule="evenodd" clip-rule="evenodd" d="M10.2289 7.17063V7.17112C10.6366 7.68263 10.8805 8.33063 10.8805 9.03525C10.8805 9.73988 10.6294 10.4071 10.2104 10.9221L10.1743 10.9665L10.1648 10.9101C10.1566 10.8622 10.147 10.8138 10.136 10.765C9.92638 9.84375 9.24313 9.05375 8.11875 8.41412C7.3595 7.98338 6.92488 7.46462 6.81075 6.87538C6.737 6.49425 6.79188 6.1115 6.89775 5.78363C7.00363 5.45588 7.16113 5.18125 7.29488 5.016L7.73225 4.48112C7.809 4.38737 7.9525 4.38737 8.02925 4.48112L10.229 7.17075L10.2289 7.17063ZM10.9208 6.63625V6.636L7.989 3.05138C7.933 2.98288 7.82825 2.98288 7.77225 3.05138L4.8405 6.63613V6.63638L4.831 6.64825C4.29163 7.31763 3.96875 8.16838 3.96875 9.0945C3.96875 11.2514 5.72013 13 7.88063 13C10.0411 13 11.7925 11.2514 11.7925 9.0945C11.7925 8.16838 11.4696 7.31763 10.9301 6.64813L10.9205 6.63625H10.9208ZM5.54213 7.159L5.80438 6.83825L5.81225 6.8975C5.8185 6.94437 5.82613 6.9915 5.83513 7.03888C6.00475 7.92912 6.61088 8.67138 7.62425 9.24625C8.50513 9.7475 9.018 10.324 9.16575 10.9563C9.22738 11.2201 9.23838 11.4797 9.21175 11.7067L9.21013 11.7207L9.19738 11.727C8.79988 11.9212 8.35288 12.0302 7.8805 12.0302C6.22375 12.0302 4.88063 10.6894 4.88063 9.03525C4.88063 8.32513 5.12825 7.6725 5.542 7.15913L5.54213 7.159Z" fill="currentColor"/>
</g>
<defs>
<clipPath id="clip0_37_7532">
<rect width="16" height="16" rx="8" fill="currentColor"/>
</clipPath>
</defs>
</svg>
