<svg width="16" height="16" viewBox="0 0 16 16" fill="none" xmlns="http://www.w3.org/2000/svg">
<g clip-path="url(#clip0_37_7531)">
<path d="M16 0H0V16H16V0Z" fill="#97F0E5"/>
<path d="M6.64001 12.512H4.91201V10.208H4.33601V7.904H3.76001V6.176H3.18401V4.448H4.33601V6.176H4.91201V7.904H5.48801V10.784H6.06401V9.056H6.64001V6.176H7.21601V4.448H8.94401V6.176H9.52001V9.056H10.096V10.784H10.684V7.904H11.248V6.176H11.824V4.448H12.832V6.176H12.4V7.904H11.824V10.208H11.248V12.512H9.52001V11.36H8.94401V9.056H8.36801V6.176H7.79201V9.056H7.21601V11.36H6.64001V12.512Z" fill="black"/>
</g>
<defs>
<clipPath id="clip0_37_7531">
<rect width="16" height="16" rx="8" fill="currentColor"/>
</clipPath>
</defs>
</svg>
